<?xml version="1.0" encoding="UTF-8" standalone="no"?><!DOCTYPE svg PUBLIC "-//W3C//DTD SVG 1.1//EN" "http://www.w3.org/Graphics/SVG/1.1/DTD/svg11.dtd"><svg width="100%" height="100%" viewBox="0 0 2631 2577" version="1.1" xmlns="http://www.w3.org/2000/svg" xmlns:xlink="http://www.w3.org/1999/xlink" xml:space="preserve" xmlns:serif="http://www.serif.com/" style="fill-rule:evenodd;clip-rule:evenodd;stroke-linejoin:round;stroke-miterlimit:2;"><g><path d="M389.865,2486.63c-0.087,77.6 3.32,88.936 -10.073,89.006c-30.027,0.158 -367.943,1.935 -375.336,-0.826c-6.465,-2.415 -3.399,-5.839 -4.379,-1313.174c-0.196,-261.074 -0.005,-656.41 0.431,-658.356c3.378,-15.067 97.354,3.42 100.313,-12.443c2.439,-13.072 -4.619,-166.55 4.13,-170.419c6.826,-3.018 97.024,4.187 100.322,-4.367c2.97,-7.701 -2.678,-128.238 3.486,-133.8c4.632,-4.18 107.388,1.625 112.568,-4.031c4.452,-4.861 -2.934,-93.6 5.047,-98.131c6.429,-3.651 139.433,4.825 142.743,-5.185c3.558,-10.761 -5.219,-86.298 6.208,-89.257c12.139,-3.143 231.07,4.852 236.243,-3.84c3.826,-6.43 -5.633,-77.077 5.957,-81.516c0.016,-0.006 1359.117,-0.128 1583.069,0.063c320.904,0.273 327.876,-3.237 328.293,7.219c1.188,29.81 0.281,236.903 0.63,324.896c0.008,1.942 0.089,22.328 -4.336,23.887c-8.647,3.048 -1776.327,-2.511 -1780.88,2.82c-5.305,6.21 3.508,82.938 -5.961,86.364c-10.348,3.744 -222.615,-4.472 -228.681,3.98c-4.581,6.383 6.589,79.739 -8.914,80.248c-46.161,1.516 -109.301,-5.328 -109.729,6.69c-1.099,30.876 3.572,136.764 -3.55,140.746c-7.104,3.972 -94.174,-2.748 -97.299,6.033c-2.97,8.344 -0.518,1659.12 -0.303,1803.391Z" style="fill:#232322;"/><path d="M1157.34,1882.473c0.112,54.972 1.379,678.426 -0.166,687.155c-1.095,6.183 -4.183,6.175 -206.579,6.182c-162.066,0.006 -164.734,-0.32 -165.9,-6.025c-0.115,-0.563 -2.679,-1097.768 0.954,-1102.617c0.602,-0.803 0.937,-2.732 410.778,-2.77c466.666,0.056 933.333,0.112 1399.999,0.167c21.849,0.073 32.34,-8.318 32.601,13.739c0.324,27.436 3.983,336.942 -2.215,342.968c-5.863,5.7 -1460.417,-1.652 -1467.025,3.901c-3.551,2.984 -2.407,35.096 -2.449,57.3Z" style="fill:#232323;"/><path d="M2000.6,713.981c371.557,-0.254 371.253,0.582 512.497,-0.061c101.12,-0.46 115.127,-1.35 115.994,6.177c0.189,1.637 1.291,332.793 -0.422,336.89c-2.262,5.41 -4.947,3.494 -969.741,3.992c-69.33,0.036 -846.072,0.437 -866.631,0.011c-11.635,-0.241 -7.998,-7.312 -8.863,-203.519c-0.17,-38.559 -2.48,-57.884 8.838,-58.086c31.663,-0.565 31.206,0.481 62.491,-0.199c14.512,-0.315 9.611,-32.595 9.709,-58.379c0.008,-2.198 0.099,-26.294 6.651,-26.657c3.375,-0.187 1112.699,-0.396 1129.477,-0.168Z" style="fill:#232323;"/><path d="M1550.638,2575.745c-1.376,-0.227 -13.969,3.558 -14.02,-9.911c-0.076,-20.003 -0.47,-124.236 -0.12,-250.044c0.038,-13.665 -3.482,-46.09 5.624,-46.562c29.365,-1.523 81.766,5.364 82.218,-7.72c2.215,-64.133 -4.906,-72.294 9.496,-72.478c61.302,-0.781 885.588,0.155 962.595,0.243c2.597,0.003 30.345,0.034 32.375,2.378c4.733,5.462 -0.169,110.138 1.57,369.981c0.125,18.651 -9.53,14.182 -88.124,14.138c-330.538,-0.008 -661.076,-0.016 -991.614,-0.024Z" style="fill:#1f8efd;"/></g></svg>