<?xml version="1.0" encoding="UTF-8" standalone="no"?><!DOCTYPE svg PUBLIC "-//W3C//DTD SVG 1.1//EN" "http://www.w3.org/Graphics/SVG/1.1/DTD/svg11.dtd"><svg width="100%" height="100%" viewBox="0 0 1606 1605" version="1.1" xmlns="http://www.w3.org/2000/svg" xmlns:xlink="http://www.w3.org/1999/xlink" xml:space="preserve" xmlns:serif="http://www.serif.com/" style="fill-rule:evenodd;clip-rule:evenodd;stroke-linejoin:round;stroke-miterlimit:2;"><g><path d="M494.238,16.691c40.408,-6.617 63.357,-16.587 168.185,-16.487c869.402,0.834 829.53,-0.583 905.12,-0.102c35.601,0.226 33.364,14.094 33.25,40.922c-0.254,60.034 0.215,59.935 0.084,119.902c-0.113,51.809 -0.016,52.043 -2.608,56.721c-8.202,14.797 -25.574,12.466 -27.877,12.465l-482.627,-0.287c-438.462,0.337 -438.529,-1.063 -485.24,3.019c-35.382,3.092 -84.218,14.889 -99.721,20.136c-111.89,37.868 -164.455,104.027 -165.526,105.179c-28.617,30.753 -48.33,69.875 -51.364,76.952c-19.777,46.123 -22.002,58.557 -30.437,97.202c-7.077,32.425 -10.901,99.218 -10.879,102.493c0.246,35.716 0.081,35.614 -0.084,71.353c-1.168,252.157 0.326,252.125 -0.13,274.044c-0.476,22.885 0.068,392.748 -0.34,561.625c-0.09,37.355 2.241,50.857 -15.993,58.778c-7.881,3.424 -19.509,4.364 -170.806,3.317c-19.855,-0.137 -54.488,4.346 -57.239,-24.978c-0.05,-0.534 0.261,-120.818 0.288,-131.324c1.611,-622.532 -0.958,-775.946 1.484,-830.02c0.965,-21.38 1.362,-21.283 4.73,-59.823c2.059,-23.563 3.16,-23.368 5.888,-45.62c5.168,-42.146 26.045,-115.098 43.887,-154.685c16.575,-36.778 65.417,-154.279 212.79,-249.841c35.031,-22.715 76.664,-42.767 87.617,-47.303c62.458,-25.867 73.967,-28.324 137.549,-43.639Zm875.266,906.144c16.67,-0.008 203.263,-0.092 211.21,0.045c11.408,0.196 21.973,7.722 24.399,19.337c0.884,4.234 0.096,114.206 0.396,165.415c0.083,14.124 4.395,42.245 -27.63,42.287c-77.874,0.102 -345.842,0.667 -811.504,-0.228c-35.518,-0.068 -33.383,29.859 -33.438,37.86c-0.532,77.592 0.247,43.446 -0.237,348.435c-0.064,40.072 2.868,57.686 -17.927,64.986c-6.452,2.265 -9.471,3.325 -85.424,3.087c-94.217,-0.294 -104.837,0.556 -117.205,-1.452c-2.466,-0.4 -20.666,-3.354 -23.232,-20.86c-0.047,-0.318 0.347,-573.164 0.108,-614.082c-0.073,-12.457 -4.354,-42.129 23.399,-44.699c3.006,-0.278 775.337,-0.144 857.085,-0.132Zm219.808,-461.109c9.218,2.221 14.838,8.236 14.838,23.008l0,177.344c0,31.521 -25.591,27.933 -57.112,27.933l-1057.976,0l0,-73.496c0,0 -9.317,-153.431 126.151,-153.305l974.099,-1.485Z" style="fill:#f5f5f7;"/><path d="M1603.118,1406.947l0,170.888c0,14.648 -11.892,26.539 -26.539,26.539l-570.092,0c-14.648,0 -26.539,-11.892 -26.539,-26.539l0,-170.888c0,-14.648 11.892,-26.539 26.539,-26.539l570.092,0c14.648,0 26.539,11.892 26.539,26.539Z" style="fill:#0a84ff;"/></g></svg>