<?xml version="1.0" encoding="UTF-8" standalone="no"?><!DOCTYPE svg PUBLIC "-//W3C//DTD SVG 1.1//EN" "http://www.w3.org/Graphics/SVG/1.1/DTD/svg11.dtd"><svg width="100%" height="100%" viewBox="0 0 4338 628" version="1.1" xmlns="http://www.w3.org/2000/svg" xmlns:xlink="http://www.w3.org/1999/xlink" xml:space="preserve" xmlns:serif="http://www.serif.com/" style="fill-rule:evenodd;clip-rule:evenodd;stroke-linejoin:round;stroke-miterlimit:2;"><g><g><path d="M186.539,18.73c15.251,-2.497 23.912,-6.26 63.477,-6.222c328.135,0.315 313.087,-0.22 341.616,-0.038c13.437,0.085 12.592,5.319 12.55,15.445c-0.096,22.659 0.081,22.621 0.032,45.254c-0.043,19.554 -0.006,19.643 -0.984,21.408c-3.096,5.585 -9.652,4.705 -10.522,4.705l-182.156,-0.108c-165.487,0.127 -165.512,-0.401 -183.142,1.139c-13.354,1.167 -31.786,5.619 -37.637,7.6c-42.23,14.292 -62.07,39.263 -62.474,39.697c-10.801,11.607 -18.241,26.373 -19.386,29.044c-7.464,17.408 -8.304,22.101 -11.488,36.687c-2.671,12.238 -4.114,37.447 -4.106,38.684c0.093,13.48 0.031,13.442 -0.032,26.931c-0.441,95.171 0.123,95.159 -0.049,103.431c-0.18,8.637 0.026,148.233 -0.128,211.972c-0.034,14.099 0.846,19.195 -6.036,22.184c-2.975,1.292 -7.363,1.647 -64.467,1.252c-7.494,-0.052 -20.565,1.64 -21.604,-9.427c-0.019,-0.202 0.099,-45.6 0.109,-49.565c0.608,-234.96 -0.361,-292.862 0.56,-313.272c0.364,-8.069 0.514,-8.033 1.785,-22.579c0.777,-8.893 1.193,-8.82 2.222,-17.218c1.95,-15.907 9.83,-43.441 16.564,-58.382c6.256,-13.881 24.69,-58.229 80.312,-94.296c13.222,-8.573 28.935,-16.141 33.069,-17.853c23.573,-9.763 27.917,-10.69 51.915,-16.47Zm330.349,342.003c6.292,-0.003 76.717,-0.035 79.716,0.017c4.306,0.074 8.293,2.915 9.209,7.298c0.334,1.598 0.036,43.105 0.149,62.432c0.031,5.331 1.659,15.944 -10.428,15.96c-29.392,0.039 -130.53,0.252 -306.283,-0.086c-13.405,-0.026 -12.6,11.27 -12.62,14.289c-0.201,29.285 0.093,16.398 -0.089,131.509c-0.024,15.124 1.083,21.772 -6.766,24.527c-2.435,0.855 -3.575,1.255 -32.241,1.165c-35.56,-0.111 -39.568,0.21 -44.236,-0.548c-0.931,-0.151 -7.8,-1.266 -8.768,-7.873c-0.018,-0.12 0.131,-216.327 0.041,-231.771c-0.027,-4.702 -1.643,-15.9 8.831,-16.871c1.134,-0.105 292.633,-0.054 323.486,-0.05Zm82.962,-174.035c3.479,0.838 5.6,3.109 5.6,8.684l0,66.934c0,11.897 -9.659,10.543 -21.555,10.543l-399.308,0l0,-27.739c0,0 -3.517,-57.909 47.613,-57.861l367.651,-0.56Z" style="fill:#1a1a1a;"/><path d="M605.059,543.45l0,64.498c0,5.528 -4.488,10.017 -10.017,10.017l-215.168,0c-5.528,0 -10.017,-4.488 -10.017,-10.017l0,-64.498c0,-5.528 4.488,-10.017 10.017,-10.017l215.168,0c5.528,0 10.017,4.488 10.017,10.017Z" style="fill:#0a84ff;"/></g><g transform="matrix(839.106665,0,0,839.106665,617.782861,617.582505)"><path d="M0.182,-0.723l0,0.723l-0.098,-0l0,-0.723l0.098,0Zm0.338,0.09l-0.429,0l0,-0.09l0.429,0l0,0.09Zm-0.054,0.326l-0.377,0l-0,-0.089l0.377,0l0,0.089Z" style="fill:#1a1a1a;fill-rule:nonzero;"/></g><g transform="matrix(839.106665,0,0,839.106665,1049.922793,617.582505)"><path d="M0.211,0.012c-0.052,0 -0.093,-0.014 -0.122,-0.041c-0.03,-0.027 -0.044,-0.063 -0.044,-0.107c0,-0.045 0.016,-0.08 0.048,-0.107c0.032,-0.027 0.077,-0.043 0.134,-0.047l0.154,-0.012l0,-0.014c0,-0.027 -0.005,-0.049 -0.015,-0.066c-0.01,-0.016 -0.024,-0.028 -0.041,-0.035c-0.017,-0.007 -0.037,-0.011 -0.059,-0.011c-0.039,0 -0.07,0.008 -0.091,0.024c-0.022,0.016 -0.033,0.039 -0.033,0.07l-0.082,0c0,-0.034 0.009,-0.064 0.026,-0.089c0.017,-0.025 0.042,-0.045 0.073,-0.059c0.032,-0.014 0.069,-0.021 0.111,-0.021c0.041,0 0.076,0.007 0.106,0.022c0.03,0.014 0.054,0.036 0.071,0.065c0.017,0.029 0.026,0.066 0.026,0.109l0,0.307l-0.08,-0l-0.01,-0.079c-0.013,0.028 -0.035,0.05 -0.066,0.067c-0.031,0.016 -0.066,0.025 -0.106,0.024Zm0.027,-0.073c0.045,0 0.08,-0.013 0.105,-0.041c0.025,-0.027 0.038,-0.064 0.038,-0.109l0,-0.026l-0.125,0.01c-0.041,0.004 -0.071,0.014 -0.089,0.029c-0.018,0.015 -0.027,0.035 -0.027,0.059c0,0.026 0.009,0.045 0.026,0.059c0.018,0.013 0.042,0.02 0.073,0.02Z" style="fill:#1a1a1a;fill-rule:nonzero;"/></g><g transform="matrix(839.106665,0,0,839.106665,1498.005752,617.582505)"><path d="M0.036,-0.244c0,-0.051 0.01,-0.096 0.03,-0.135c0.02,-0.039 0.048,-0.069 0.084,-0.091c0.036,-0.022 0.078,-0.033 0.125,-0.033c0.061,0 0.112,0.016 0.153,0.049c0.041,0.033 0.065,0.076 0.073,0.13l-0.094,0c-0.008,-0.031 -0.024,-0.055 -0.047,-0.071c-0.023,-0.016 -0.051,-0.024 -0.082,-0.024c-0.029,0 -0.055,0.007 -0.078,0.021c-0.023,0.014 -0.04,0.035 -0.053,0.06c-0.013,0.026 -0.019,0.057 -0.019,0.092c0,0.035 0.006,0.066 0.018,0.091c0.012,0.026 0.029,0.046 0.051,0.06c0.022,0.014 0.048,0.021 0.077,0.021c0.033,0 0.062,-0.008 0.086,-0.025c0.024,-0.017 0.04,-0.039 0.048,-0.068l0.094,0c-0.006,0.035 -0.02,0.066 -0.04,0.093c-0.021,0.026 -0.048,0.047 -0.08,0.062c-0.032,0.015 -0.068,0.023 -0.107,0.023c-0.048,0 -0.09,-0.011 -0.126,-0.032c-0.036,-0.021 -0.063,-0.051 -0.083,-0.089c-0.02,-0.038 -0.03,-0.083 -0.03,-0.135Z" style="fill:#1a1a1a;fill-rule:nonzero;"/></g><g transform="matrix(839.106665,0,0,839.106665,1946.088711,617.582505)"><path d="M0.279,0.012c-0.047,0 -0.089,-0.011 -0.126,-0.033c-0.037,-0.022 -0.065,-0.052 -0.086,-0.09c-0.021,-0.038 -0.031,-0.083 -0.031,-0.134c0,-0.051 0.01,-0.096 0.03,-0.135c0.02,-0.039 0.048,-0.069 0.084,-0.091c0.036,-0.022 0.077,-0.033 0.125,-0.033c0.047,0 0.087,0.01 0.121,0.03c0.034,0.02 0.061,0.048 0.08,0.084c0.019,0.036 0.028,0.079 0.028,0.127l0,0.035l-0.418,0l-0,-0.063l0.324,0c0,-0.041 -0.012,-0.073 -0.037,-0.098c-0.025,-0.025 -0.058,-0.037 -0.099,-0.037c-0.031,0 -0.058,0.007 -0.081,0.02c-0.022,0.014 -0.039,0.034 -0.051,0.06c-0.012,0.026 -0.018,0.058 -0.018,0.095c0,0.059 0.013,0.104 0.04,0.136c0.027,0.032 0.065,0.047 0.115,0.047c0.037,0 0.067,-0.007 0.09,-0.022c0.023,-0.015 0.039,-0.036 0.047,-0.064l0.088,0c-0.012,0.052 -0.038,0.092 -0.077,0.121c-0.039,0.029 -0.089,0.043 -0.15,0.043Z" style="fill:#1a1a1a;fill-rule:nonzero;"/></g><g transform="matrix(839.106665,0,0,839.106665,2400.884523,617.582505)"><path d="M0.182,-0.723l0,0.723l-0.098,-0l0,-0.723l0.098,0Zm0.338,0.09l-0.429,0l0,-0.09l0.429,0l0,0.09Zm-0.054,0.326l-0.377,0l-0,-0.089l0.377,0l0,0.089Z" style="fill:#1a1a1a;fill-rule:nonzero;"/></g><g transform="matrix(839.106665,0,0,839.106665,2866.588722,617.582505)"><path d="M0.068,-0l0,-0.489l0.094,0l0,0.489l-0.094,-0Zm0.046,-0.605c-0.017,0 -0.031,-0.006 -0.043,-0.019c-0.012,-0.012 -0.018,-0.027 -0.019,-0.043c0,-0.017 0.006,-0.032 0.019,-0.044c0.012,-0.012 0.027,-0.018 0.043,-0.018c0.017,0 0.032,0.006 0.044,0.018c0.012,0.012 0.018,0.027 0.018,0.044c0,0.017 -0.006,0.031 -0.018,0.043c-0.012,0.012 -0.027,0.019 -0.044,0.019Z" style="fill:#1a1a1a;fill-rule:nonzero;"/></g><g transform="matrix(839.106665,0,0,839.106665,3059.583255,617.582505)"><path d="M0.162,-0l-0.094,-0l0,-0.489l0.085,0l0.01,0.075c0.015,-0.028 0.038,-0.05 0.067,-0.066c0.029,-0.016 0.061,-0.023 0.096,-0.023c0.064,0 0.111,0.018 0.142,0.055c0.031,0.037 0.046,0.086 0.046,0.149l0,0.299l-0.094,-0l0,-0.278c0,-0.049 -0.011,-0.085 -0.032,-0.106c-0.021,-0.022 -0.05,-0.032 -0.086,-0.032c-0.044,0 -0.078,0.014 -0.102,0.043c-0.024,0.029 -0.037,0.067 -0.037,0.115l0,0.259Z" style="fill:#1a1a1a;fill-rule:nonzero;"/></g><g transform="matrix(839.106665,0,0,839.106665,3542.069588,617.582505)"><path d="M0.264,0.012c-0.047,0 -0.088,-0.011 -0.122,-0.033c-0.034,-0.022 -0.06,-0.052 -0.079,-0.09c-0.018,-0.039 -0.027,-0.083 -0.027,-0.132c0,-0.05 0.009,-0.094 0.028,-0.134c0.019,-0.039 0.045,-0.07 0.08,-0.093c0.035,-0.023 0.076,-0.034 0.124,-0.034c0.038,0 0.072,0.008 0.101,0.023c0.03,0.016 0.053,0.039 0.07,0.07l0,-0.326l0.093,0l0,0.736l-0.084,-0l-0.008,-0.089c-0.016,0.033 -0.039,0.058 -0.071,0.075c-0.031,0.017 -0.066,0.026 -0.105,0.026Zm0.019,-0.085c0.032,0 0.059,-0.007 0.082,-0.022c0.023,-0.015 0.041,-0.035 0.053,-0.061c0.013,-0.026 0.019,-0.056 0.019,-0.09c0,-0.034 -0.006,-0.064 -0.019,-0.09c-0.013,-0.026 -0.03,-0.046 -0.053,-0.06c-0.023,-0.015 -0.05,-0.022 -0.082,-0.022c-0.032,0 -0.059,0.007 -0.082,0.022c-0.023,0.015 -0.04,0.035 -0.052,0.061c-0.012,0.026 -0.018,0.055 -0.018,0.089c0,0.034 0.006,0.064 0.018,0.09c0.012,0.026 0.029,0.046 0.052,0.061c0.023,0.015 0.05,0.022 0.082,0.022Z" style="fill:#1a1a1a;fill-rule:nonzero;"/></g><g transform="matrix(839.106665,0,0,839.106665,4045.533586,617.582505)"><path d="M0.348,-0.493l0,0.086l-0.042,0c-0.045,0 -0.08,0.013 -0.105,0.039c-0.026,0.026 -0.039,0.062 -0.039,0.109l0,0.259l-0.094,-0l0,-0.488l0.088,0l0.008,0.098l-0.009,0c0.007,-0.032 0.023,-0.058 0.048,-0.079c0.025,-0.02 0.057,-0.03 0.095,-0.03c0.009,0 0.017,0.001 0.025,0.002c0.008,0.001 0.016,0.003 0.026,0.005Z" style="fill:#1a1a1a;fill-rule:nonzero;"/></g><g transform="matrix(839.106665,0,0,839.106665,4354.324839,617.582505)"></g></g></svg>